<svg xmlns="http://www.w3.org/2000/svg" xmlns:xlink="http://www.w3.org/1999/xlink" viewBox="0 0 80 80">
  <defs>
    <style>
      .cls-1 {
        fill: #011627;
      }

      .cls-2 {
        clip-path: url(#clip-path);
      }
    </style>
    <clipPath id="clip-path">
      <rect id="Rectangle_19" data-name="Rectangle 19" class="cls-1" width="80" height="80" transform="translate(57 252)"/>
    </clipPath>
  </defs>
  <g id="Mask_Group_5" data-name="Mask Group 5" class="cls-2" transform="translate(-57 -252)">
    <g id="bed_1_" data-name="bed (1)" transform="translate(57 252)">
      <g id="Group_28" data-name="Group 28">
        <g id="Group_27" data-name="Group 27">
          <path id="Path_16" data-name="Path 16" class="cls-1" d="M78.667,45.333H77.333v-4a6.666,6.666,0,0,0-4-6.1V14.667a1.333,1.333,0,0,0-.8-1.221,5.278,5.278,0,0,0,.8-2.779,5.333,5.333,0,0,0-10.667,0,5.279,5.279,0,0,0,.741,2.667H16.592a5.279,5.279,0,0,0,.741-2.667,5.333,5.333,0,1,0-10.667,0,5.278,5.278,0,0,0,.8,2.779,1.333,1.333,0,0,0-.8,1.221V35.232a6.666,6.666,0,0,0-4,6.1v4H1.333A1.333,1.333,0,0,0,0,46.667V65.333a1.333,1.333,0,0,0,1.333,1.333H2.667v6.667A1.333,1.333,0,0,0,4,74.667H9.333a1.333,1.333,0,0,0,1.333-1.333V66.667H69.333v6.667a1.333,1.333,0,0,0,1.333,1.333H76a1.333,1.333,0,0,0,1.333-1.333V66.667h1.333A1.333,1.333,0,0,0,80,65.333V46.667A1.333,1.333,0,0,0,78.667,45.333ZM68,8a2.667,2.667,0,1,1-2.667,2.667A2.667,2.667,0,0,1,68,8ZM12,8a2.667,2.667,0,1,1-2.667,2.667A2.667,2.667,0,0,1,12,8ZM9.333,16H70.667V34.667H65.3a6.6,6.6,0,0,0,1.368-4V28A6.675,6.675,0,0,0,60,21.333H49.333A6.675,6.675,0,0,0,42.667,28v2.667a6.6,6.6,0,0,0,1.368,4H35.965a6.6,6.6,0,0,0,1.368-4V28a6.675,6.675,0,0,0-6.667-6.667H20A6.675,6.675,0,0,0,13.333,28v2.667a6.6,6.6,0,0,0,1.368,4H9.333ZM64,28v2.667a4,4,0,0,1-4,4H49.333a4,4,0,0,1-4-4V28a4,4,0,0,1,4-4H60A4,4,0,0,1,64,28ZM34.667,28v2.667a4,4,0,0,1-4,4H20a4,4,0,0,1-4-4V28a4,4,0,0,1,4-4H30.667A4,4,0,0,1,34.667,28ZM5.333,41.333a4,4,0,0,1,4-4H70.667a4,4,0,0,1,4,4v4H5.333ZM8,72H5.333V66.667H8Zm66.667,0H72V66.667h2.667Zm2.667-8H2.667V48H77.333Z"/>
        </g>
      </g>
      <g id="Group_30" data-name="Group 30">
        <g id="Group_29" data-name="Group 29">
          <path id="Path_17" data-name="Path 17" class="cls-1" d="M12,58.667H6.667a1.333,1.333,0,0,0,0,2.667H12a1.333,1.333,0,1,0,0-2.667Z"/>
        </g>
      </g>
      <g id="Group_32" data-name="Group 32">
        <g id="Group_31" data-name="Group 31">
          <path id="Path_18" data-name="Path 18" class="cls-1" d="M73.333,58.667h-56a1.333,1.333,0,1,0,0,2.667h56a1.333,1.333,0,1,0,0-2.667Z"/>
        </g>
      </g>
    </g>
  </g>
</svg>
