<svg xmlns="http://www.w3.org/2000/svg" xmlns:xlink="http://www.w3.org/1999/xlink" viewBox="0 0 80 80">
  <defs>
    <style>
      .cls-1 {
        clip-path: url(#clip-path);
      }
    </style>
    <clipPath id="clip-path">
      <rect id="Rectangle_11" data-name="Rectangle 11" width="80" height="80" transform="translate(235 261)"/>
    </clipPath>
  </defs>
  <g id="bussiness" class="cls-1" transform="translate(-235 -261)">
    <g id="conference" transform="translate(235 261)">
      <g id="Group_13" data-name="Group 13">
        <circle id="Ellipse_1" data-name="Ellipse 1" cx="6.452" cy="6.452" r="6.452" transform="translate(33.548 0.645)"/>
        <path id="Path_9" data-name="Path 9" d="M47.742,31.613H32.258V22.581A7.741,7.741,0,0,1,40,14.839h0a7.741,7.741,0,0,1,7.742,7.742Z"/>
      </g>
      <g id="Group_14" data-name="Group 14">
        <path id="Path_10" data-name="Path 10" d="M43.192,61.884a7.742,7.742,0,1,0-6.385,0,9.041,9.041,0,0,0-5.84,8.439v9.032H49.032V70.323A9.041,9.041,0,0,0,43.192,61.884Zm-8.354-7.045A5.161,5.161,0,1,1,40,60,5.166,5.166,0,0,1,34.839,54.839ZM46.452,76.774h-12.9V70.323a6.452,6.452,0,1,1,12.9,0Z"/>
        <rect id="Rectangle_12" data-name="Rectangle 12" width="24.516" height="2.581" transform="translate(28.387 40.645)"/>
        <path id="Path_11" data-name="Path 11" d="M80,26.452V.645H77.419V23.871H59.355V23.33a6.172,6.172,0,0,0-1.819-4.394l-1.148-1.148a3.835,3.835,0,0,0,.387-1.659A3.871,3.871,0,1,0,52.9,20a3.808,3.808,0,0,0,1.658-.388L55.71,20.76a3.665,3.665,0,0,1,1.065,2.57v.541H47.742v2.581h9.032v3.871H23.226V26.452h9.032V23.871H23.226V23.33a3.664,3.664,0,0,1,1.063-2.569l1.148-1.148A3.835,3.835,0,0,0,27.1,20a3.871,3.871,0,1,0-3.871-3.871,3.808,3.808,0,0,0,.388,1.658l-1.148,1.148a6.173,6.173,0,0,0-1.821,4.395v.541H2.581V.645H0V26.452H20.645v3.871H18.065v7.742h2.581v10.08a7.734,7.734,0,1,0-7.063,13.739,9.041,9.041,0,0,0-5.84,8.439v9.032H25.806V70.323a9.041,9.041,0,0,0-5.84-8.439,7.724,7.724,0,0,0,3.259-11.316v-12.5H56.774v12.5a7.724,7.724,0,0,0,3.259,11.316,9.041,9.041,0,0,0-5.84,8.439v9.032H72.258V70.323a9.041,9.041,0,0,0-5.84-8.439,7.735,7.735,0,1,0-7.063-13.739V38.065h2.581V30.323H59.355V26.452ZM51.613,16.129a1.29,1.29,0,1,1,1.29,1.29A1.291,1.291,0,0,1,51.613,16.129ZM27.1,14.839a1.29,1.29,0,1,1-1.29,1.29A1.291,1.291,0,0,1,27.1,14.839ZM23.226,70.323v6.452h-12.9V70.323a6.452,6.452,0,1,1,12.9,0ZM16.774,60a5.161,5.161,0,1,1,5.161-5.161A5.166,5.166,0,0,1,16.774,60Zm52.9,10.323v6.452h-12.9V70.323a6.452,6.452,0,1,1,12.9,0ZM63.226,49.677a5.161,5.161,0,1,1-5.161,5.161A5.166,5.166,0,0,1,63.226,49.677ZM59.355,35.484H20.645V32.9h38.71Z"/>
        <rect id="Rectangle_13" data-name="Rectangle 13" width="18.065" height="2.581" transform="translate(55.484 1.935)"/>
        <rect id="Rectangle_14" data-name="Rectangle 14" width="11.613" height="2.581" transform="translate(61.935 7.097)"/>
      </g>
    </g>
  </g>
</svg>
