<svg xmlns="http://www.w3.org/2000/svg" xmlns:xlink="http://www.w3.org/1999/xlink" viewBox="0 0 80 80">
  <defs>
    <style>
      .cls-1 {
        fill: #fff;
        stroke: #707070;
      }

      .cls-2 {
        clip-path: url(#clip-path);
      }
    </style>
    <clipPath id="clip-path">
      <rect id="Rectangle_15" data-name="Rectangle 15" class="cls-1" width="80" height="80" transform="translate(60 426)"/>
    </clipPath>
  </defs>
  <g id="restourant" class="cls-2" transform="translate(-60 -426)">
    <g id="crossed-knife-and-fork" transform="translate(60 426)">
      <g id="Group_16" data-name="Group 16">
        <g id="Group_15" data-name="Group 15">
          <path id="Path_12" data-name="Path 12" d="M59.63,68.812C56.755,64.407,14.675,9,8.367,1.4a1.55,1.55,0,0,0-2.309-.34c-.678.669-1.085,1.644.335,7.492.851,3.5,7.492,23.036,9.755,28.647,4.6,11.416,7.552,11.04,9.241,11.257a3.306,3.306,0,0,0,2.32-.561c1.888-1.289,2.518-1.664,3.248-2.1.256-.153.529-.316.871-.526,2.041,3.345,4.561,8.534,7.008,13.571,3.292,6.779,6.7,13.789,9.417,17.417A7.254,7.254,0,0,0,53.118,79.4,7.068,7.068,0,0,0,59.63,68.812Zm-2.7,5.67a3.679,3.679,0,0,1-3.421,1.907,4.442,4.442,0,0,1-2.823-1.957c-2.546-3.394-5.885-10.27-9.115-16.921-2.951-6.075-5.737-11.814-8.017-15.185A1.518,1.518,0,0,0,31.47,41.9c-1.02.658-3.507,2.142-5.472,3.483a.274.274,0,0,1-.22.058c-1.042.539-1.108-.252-2.866-2.638C20.079,38.961,12.084,16.386,9.771,8.971c-.9-2.875.058-1.29.761-.386,7.6,9.774,43.762,57.608,46.554,61.887A3.737,3.737,0,0,1,56.928,74.482Z"/>
        </g>
      </g>
      <g id="Group_18" data-name="Group 18">
        <g id="Group_17" data-name="Group 17">
          <path id="Path_13" data-name="Path 13" d="M79.572,16.043a1.518,1.518,0,0,0-2.147-.032c-3.876,3.76-7.491,7.427-10.4,10.374q-1.113,1.13-2.037,2.064l-2.864-2.866,12.1-11.742a1.519,1.519,0,0,0-2.115-2.179L59.98,23.434l-2.7-2.7L69.458,8.924a1.518,1.518,0,1,0-2.115-2.179L55.138,18.588l-2.626-2.628L65.7,3.16A1.518,1.518,0,0,0,63.587.981L48.407,15.71c-3.88,3.764-3.58,9.292.647,14.391l-8.634,8.5a1.518,1.518,0,0,0,2.115,2.179l8.64-8.51A12.276,12.276,0,0,0,57,34.978c.272.046.547.081.822.106a8.716,8.716,0,0,0,6.934-2.116c1.054-1.022,2.545-2.535,4.434-4.452,2.894-2.935,6.5-6.589,10.348-10.326A1.52,1.52,0,0,0,79.572,16.043ZM62.641,30.789A5.8,5.8,0,0,1,58.1,32.06a9.287,9.287,0,0,1-5.764-2.841c-3.1-3.2-5.218-7.774-2-11.139l12.5,12.515Z"/>
        </g>
      </g>
      <g id="Group_20" data-name="Group 20">
        <g id="Group_19" data-name="Group 19">
          <path id="Path_14" data-name="Path 14" d="M33.559,52.439a1.518,1.518,0,0,0-2.144.126c-6.11,6.875-17.2,19.021-20.941,22.34-1.86,1.65-4.79.984-6.359-.673C2.475,72.5,2.722,70.3,4.795,68.208c5.262-5.318,13.014-11.407,18.86-15.816a1.519,1.519,0,1,0-1.828-2.425C15.9,54.433,8.037,60.613,2.636,66.072-1.3,70.048-.213,74.077,1.911,76.319a8.5,8.5,0,0,0,4.7,2.478,6.956,6.956,0,0,0,5.875-1.622c4.324-3.835,16.767-17.611,21.2-22.595A1.517,1.517,0,0,0,33.559,52.439Z"/>
        </g>
      </g>
    </g>
  </g>
</svg>
