<svg xmlns="http://www.w3.org/2000/svg" xmlns:xlink="http://www.w3.org/1999/xlink" viewBox="0 0 80 80">
  <defs>
    <style>
      .cls-1 {
        fill: #fff;
        stroke: #707070;
      }

      .cls-2 {
        clip-path: url(#clip-path);
      }
    </style>
    <clipPath id="clip-path">
      <rect id="Rectangle_16" data-name="Rectangle 16" class="cls-1" width="80" height="80" transform="translate(235 426)"/>
    </clipPath>
  </defs>
  <g id="spa" class="cls-2" transform="translate(-235 -426)">
    <g id="spa-2" data-name="spa" transform="translate(235 426)">
      <g id="Group_22" data-name="Group 22">
        <g id="Group_21" data-name="Group 21">
          <path id="Path_15" data-name="Path 15" d="M78.666,63.333H77.184a9.305,9.305,0,0,0-1.733-14.667,9.325,9.325,0,0,0-4.785-17.333h-12V22a1.333,1.333,0,0,0-1.536-1.317l-15.8,2.429V21.867a6.679,6.679,0,0,0,5.333-6.533c0-5.819-5.489-11.376-5.724-11.609a1.333,1.333,0,0,0-1.885,0c-.235.233-5.724,5.791-5.724,11.609a6.679,6.679,0,0,0,5.333,6.533v1.657l-16.2,2.493a1.333,1.333,0,0,0-1.131,1.316V42.188A14.589,14.589,0,0,0,18,39.513a1.333,1.333,0,0,0-1.333,0,14.732,14.732,0,0,0-7.2,10.781A14.472,14.472,0,0,0,6.667,50a14.553,14.553,0,0,0-1.76.115,1.333,1.333,0,0,0-1.067.8A14.655,14.655,0,0,0,8.916,68.666H0v2.667H3.176l2.3,4.6a1.334,1.334,0,0,0,1.193.737H57.333a1.333,1.333,0,0,0,1.333-1.333v-4h8.509l2.3,4.6a1.334,1.334,0,0,0,1.193.737H76a1.333,1.333,0,0,0,1.333-1.333v-4h1.333A1.333,1.333,0,0,0,80,70V64.666A1.333,1.333,0,0,0,78.666,63.333Zm-1.333-6.667a6.675,6.675,0,0,1-6.667,6.667h-24a6.667,6.667,0,0,1,0-13.333H64a4,4,0,0,1,0,8H50.666a1.333,1.333,0,1,1,0-2.667H60V52.666H50.666a4,4,0,1,0,0,8H64A6.675,6.675,0,0,0,70.666,54,6.6,6.6,0,0,0,69.3,50h1.368A6.675,6.675,0,0,1,77.332,56.666ZM66.666,34a4,4,0,0,1,0,8H53.333a1.333,1.333,0,1,1,0-2.667h9.333V36.667H53.333a4,4,0,1,0,0,8H66.666A6.675,6.675,0,0,0,73.333,38,6.6,6.6,0,0,0,72.1,34.165a6.667,6.667,0,0,1-1.435,13.168H52A6.667,6.667,0,0,1,52,34ZM36,15.333c0-3.409,2.567-6.955,4-8.667,1.435,1.711,4,5.249,4,8.667a4,4,0,0,1-2.667,3.755V16.667H38.666v2.421A4,4,0,0,1,36,15.333Zm-18.666,26.9a12.041,12.041,0,0,1,5.26,8.808,14.7,14.7,0,0,0-5.248,3.572,14.757,14.757,0,0,0-5.273-3.551A12.038,12.038,0,0,1,17.333,42.237Zm6.688,11.108A12,12,0,0,1,28,52.666c.209,0,.428.008.656.023A12,12,0,0,1,17.333,68.666c-.209,0-.428-.008-.656-.023A12,12,0,0,1,24.021,53.345ZM5.333,56.666a11.928,11.928,0,0,1,.677-3.977c.228-.015.447-.023.656-.023a11.876,11.876,0,0,1,9,4.089,14.439,14.439,0,0,0-1.907,11.369A12,12,0,0,1,5.333,56.666ZM27.176,74H7.491L6.157,71.333H28.509ZM40,74H30.157l1.333-2.667h3.176V68.666H25.74a14.645,14.645,0,0,0,5.087-17.75,1.333,1.333,0,0,0-1.067-.8,14.051,14.051,0,0,0-4.556.16A14.6,14.6,0,0,0,23.914,46H24V28.477l32-4.923v7.779H52a9.321,9.321,0,0,0-6.44,16.072,9.319,9.319,0,0,0-5.412,15.928H38.666a1.333,1.333,0,0,0-1.333,1.333V70a1.333,1.333,0,0,0,1.333,1.333H40Zm5.843,0H42.666V71.333h4.509ZM56,74H48.823l1.333-2.667H56Zm18.666,0H71.49l-1.333-2.667h4.509Zm2.667-5.333H40V66H77.332Z"/>
        </g>
      </g>
      <g id="Group_24" data-name="Group 24">
        <g id="Group_23" data-name="Group 23">
          <rect id="Rectangle_17" data-name="Rectangle 17" width="2.667" height="10.667" transform="translate(26.666 31.333)"/>
        </g>
      </g>
      <g id="Group_26" data-name="Group 26">
        <g id="Group_25" data-name="Group 25">
          <rect id="Rectangle_18" data-name="Rectangle 18" width="2.667" height="2.667" transform="translate(26.666 44.667)"/>
        </g>
      </g>
    </g>
  </g>
</svg>
